# xmcd
# 
# Track frame offsets:
#     182
#     10002
#     22587
#     35075
#     45155
#     58840
#     70907
#     83372
#     94782
#     105995
#     120632
#     140327
# 
# Disc length: 2031
# 
# Revision: 4
# Processed by: cddbd v1.5.2PL0 Copyright (c) Steve Scherf et al.
# Submitted via: fre:ac v1.0.31
# 
DISCID=8407ed0c
DTITLE=Columbia Blues - Koko Taylor
DYEAR=1969
DGENRE=Blues
TTITLE0=Love You Like A Woman
TTITLE1=I Love A Lover Like You
TTITLE2=Don't Mess With The Messer
TTITLE3=I Don't Care Who Knows
TTITLE4=Wang Dang Doodle
TTITLE5=I'm A Little Mixed Up
TTITLE6=Nitty Gritty
TTITLE7=Fire
TTITLE8=Whatever I Am, You Made Me
TTITLE9=Twenty-Nine Ways
TTITLE10=Insane Asylum
TTITLE11=Yes, It's Good For You
EXTD=
EXTT0=
EXTT1=
EXTT2=
EXTT3=
EXTT4=
EXTT5=
EXTT6=
EXTT7=
EXTT8=
EXTT9=
EXTT10=
EXTT11=
PLAYORDER=
